<svg xmlns="http://www.w3.org/2000/svg" viewBox="0 0 260.5 240"><title>Analytics black</title><g id="Layer_2" data-name="Layer 2"><g id="Layer_1-2" data-name="Layer 1"><path d="M231.86,0a29.17,29.17,0,0,0-29.35,28.37A28.82,28.82,0,0,0,205.08,41a8.23,8.23,0,0,1-2,9.53L188.4,63.7a8.23,8.23,0,0,1-9.7,1,29,29,0,0,0-38.32,8.19,8.19,8.19,0,0,1-9.2,3,8.32,8.32,0,0,1-5.68-8v-.13A29,29,0,1,0,67.82,72a8.32,8.32,0,0,1-4.48,8.73l-3.85,1.9a8.23,8.23,0,0,1-9.57-1.68,29,29,0,1,0,7.76,15.77A8.31,8.31,0,0,1,62.16,88L66,86.09a8.17,8.17,0,0,1,9.53,1.57,29,29,0,0,0,44.62-3.18,8.18,8.18,0,0,1,9.2-3h0a8.31,8.31,0,0,1,5.68,8v.14a29,29,0,1,0,55.42-12,8.23,8.23,0,0,1,2-9.53L207.1,55a8.14,8.14,0,0,1,9.57-1A29,29,0,1,0,231.86,0Z"/><rect x="26" y="148.21" width="6" height="91.79"/><rect x="93.5" y="115.21" width="6" height="124.79"/><rect x="161" y="143.71" width="6" height="96.29"/><rect x="228.5" y="79.21" width="6" height="160.79"/></g></g></svg>