<svg xmlns="http://www.w3.org/2000/svg" viewBox="0 0 1722.92 531.9"><title>Crypto black</title><g id="Layer_2" data-name="Layer 2"><g id="Layer_1-2" data-name="Layer 1"><path d="M135.72,122.27c-2.62-1.31-8.44-3.07-15.37-3.53s-15.83,0-15.83,0v30s9.29.2,15.5-.26,12.62-2,15.83-3.8,7.06-4.51,7.06-11.37S138.33,123.58,135.72,122.27Z"/><path d="M116.16,104.81c5.1-.2,10.53-1.37,14.45-3.53a11,11,0,0,0,6-10.66c-.13-5.11-3.53-9.42-9.28-11.19a44.31,44.31,0,0,0-14-2c-4.38-.07-8.83.33-8.83.33v27S111.06,105,116.16,104.81Z"/><path d="M113.41,0A113.41,113.41,0,1,0,226.82,113.44,113.42,113.42,0,0,0,113.41,0Zm46.18,156.78c-8.44,5.88-17.46,6.93-21.45,7.45-2,.26-5.35.53-9,.75v22.73h-14V165.37H104.52v22.37h-14V165.37H63l2.87-16.81h8.37c2.82,0,4-.26,5.17-1.37A5.66,5.66,0,0,0,80.84,143V85.09c0-3.63-.3-4.61-2-6.48s-5.59-2.11-7.8-2.11H63V62H90.52V39.53h14V62h10.66V39.53h14V62.24c10.44.64,18.21,2.63,25,7.64,8.76,6.48,8.3,17.73,8.11,20.41s-1.37,7.85-3.73,11.18-8.11,6.67-8.11,6.67,6.8,1.44,11.58,5,8.31,9.94,8.1,19.23S168,150.92,159.59,156.81Z"/><path d="M412.62,0A113.44,113.44,0,1,0,526.07,113.44,113.44,113.44,0,0,0,412.62,0Zm44,168.76H368l7.45-35.56L361,143.13l3.52-19.46,15.15-10.43L394.52,42.3h27.67L412,91l36-24.8-4.22,20.17-36,24.69L400.62,145h61l-4.92,23.76Z"/><path d="M412.63,304.94A113.35,113.35,0,1,0,526.07,418.29,113.4,113.4,0,0,0,412.63,304.94Zm28.94,90.36,7.83,15-52.48,27.38v43.79H380V358.72h16.93v19.19l44.65-23.29,7.83,15L396.92,397v21.58l44.65-23.29Z"/><polygon points="984.06 391.73 1033.26 459.34 1037.62 445.56 987.72 376.82 984.06 391.73"/><path d="M1011.05,304.71a113.59,113.59,0,1,0,113.59,113.58A113.58,113.58,0,0,0,1011.05,304.71Zm44.35,158.43c-1.58,6-5.69,11.28-10.49,13.44-4,1.8-16,1.46-16,1.46l-49.76-68.46s-12.79,47.75-14.45,53.56c-2.42,8.48-6.43,10.91-10.43,13.12S937.53,478,937.53,478s26.29-96,28.54-104.59S973.69,361,977.7,359.5s15.08-.85,15.08-.85l49.65,68L1057,372.94a23.84,23.84,0,0,1,7.64-11.18c5.69-4.32,19-3.24,19-3.24S1057,457.13,1055.4,463.14Z"/><path d="M1310.27,304.91a113.38,113.38,0,1,0,113.37,113.38A113.38,113.38,0,0,0,1310.27,304.91ZM1369.5,418a29.28,29.28,0,0,1-10,3.54s0,.07,0,.11a26.57,26.57,0,0,0-21.62,38.22,29.34,29.34,0,1,1-55-.5l-.09-.06a26.57,26.57,0,0,0-22.28-37.88,29.34,29.34,0,1,1,28-47.34h0a26.57,26.57,0,0,0,43.61,0h0A29.34,29.34,0,1,1,1369.5,418Z"/><path d="M1310.27,396.47a21.82,21.82,0,1,0,21.82,21.82A21.82,21.82,0,0,0,1310.27,396.47Z"/><path d="M113.41,305a113.3,113.3,0,1,0,113.3,113.3A113.3,113.3,0,0,0,113.41,305Zm47.42,163.78c-7.36,12.66-23.9,17.12-36.94,10a25.91,25.91,0,0,1-10.27-35.86,10.79,10.79,0,0,0-4.28-14.94,11.48,11.48,0,0,0-15.26,3.94h0v0l-.13.23c-7.36,12.66-23.9,17.12-36.94,10A25.91,25.91,0,0,1,46.74,406.2c7.37-12.66,23.91-17.12,36.94-10a26.6,26.6,0,0,1,10.11,9.7h0a11.5,11.5,0,0,0,15.34,3.6,10.78,10.78,0,0,0,3.94-15,25.89,25.89,0,0,1,9.45-36.07c12.87-7.43,29.51-3.32,37.16,9.17a25.89,25.89,0,0,1-9.45,36.07,27.59,27.59,0,0,1-13.7,3.7h0a11.07,11.07,0,1,0,.53,22.13l0,0a27.66,27.66,0,0,1,13.53,3.4,25.91,25.91,0,0,1,10.27,35.86Z"/><path d="M1676,461.4l-86.4-57.25h-23a14.49,14.49,0,1,1,0-29h31.78l86.4,57.25H1722a114.12,114.12,0,0,0,0-28.29h-43.11a14.49,14.49,0,0,1,0-29h35.5a113.47,113.47,0,0,0-213.56,10.28l70.88,47h22.36a14.49,14.49,0,1,1,0,29H1563l-67-44.37c0,.42,0,.84,0,1.26a113.45,113.45,0,0,0,218.39,43.11Z"/><path d="M711.84,0a113.4,113.4,0,1,0,113.4,113.4A113.44,113.44,0,0,0,711.84,0Zm30.1,174.6s5.3-17.8,3-33.8-16.7-35.4-27.5-44.1S685.94,78,685.94,78s18,13.8,24.3,20.4,14.8,17.5,18.9,31.8,3.4,39.2-4.9,44.4-30-3.8-37.2-9.9-16.5-16-19.2-36.6-2-68.7-2-68.7,38.6.2,67.8,18.6,31.9,33,31.9,56.6-23.6,40-23.6,40Z"/><path d="M1310.27.06a113.38,113.38,0,1,0,113.37,113.38A113.38,113.38,0,0,0,1310.27.06Zm53,113.15c0,29.39-22.69,39.38-41.8,39.38v7.66h14.74v10.38h-14.74v11.93h-23V170.63h-14.1V160.25h14.06v-7.76c-6.11,0-41.12-1.45-41.12-41.41V63h22.89v50c0,20.85,18.33,20.66,18.33,20.66V63h23v70.61s18.91,1.06,18.91-21V63h22.89Z"/><path d="M714.57,379.55H698.33v32h25.54V425H698.33v32h17c4.37,0,35.91.5,35.87-37.23S720.64,379.55,714.57,379.55Z"/><path d="M711.84,304.68A113.61,113.61,0,1,0,825.45,418.29,113.61,113.61,0,0,0,711.84,304.68Zm4.46,175H675.16V425h-14.5v-13.4h14.5v-54.7h35.31c8.35,0,63.68-1.73,63.68,62.43C774.15,484.5,716.3,479.65,716.3,479.65Z"/><path d="M1011.05.28a113.16,113.16,0,1,0,113.16,113.16A113.16,113.16,0,0,0,1011.05.28Zm70.26,57.22c-.89,12.45-18.25,31.72-24.6,39.17s-11.78,15.42-13.51,15.59-13.35-1-15.42,4.1c-.93,2.29,12.5,1.74,12.5,1.74s-21.73,30.66-23.09,30.88-16.48-.83-25.92,1.07-13,7.18-13,7.18,13.43,1.19,22.79,1.61,23.76.6,23.76.6-10.34,5.59-26.77,4.69-23-2.2-23-2.2,2.29,6,6.82,8.85,12.2,5.17,12,5.59-9.95-.25-16.35-3.34-7.54-8-8.43-7.2,1.66,6.95,3.86,9,7.79,5.93,7.07,6.18-13.34-4.65-15.71-7.53c-1.12,2.39-13.07,14.95-13.54,13.62s8.89-11.15,9.53-14-.16-7.2-2.29-7.08-5.84,7.82-5.84,7.82a11.73,11.73,0,0,1-.83-6.23,12,12,0,0,1,2.83-5.56s-4.48-4.8-6.58-6.89-6.92-5.75-6.35-7,7.59,2.73,10,4.45a101.57,101.57,0,0,1,7.72,6.89s-2-6.45-3.55-10.8-4-9.24-3.47-9.69,5.15,5.59,7.12,8.61,5.08,8.8,5.08,8.8a90.6,90.6,0,0,1,.16-13.44c.67-5.33,2.92-10.7,4-10.32s1.24,4.73,3.56,10.23,3.91,8,5,7.33,2-7.7,1.39-18-1.48-18.08-1.48-18.08,6.26-6.59,6.73-6.27.16,10.7.61,15.08,1.74,8.71,2.35,8.64,3.39-4.67,5.22-15.68,2.66-16.56,2.66-16.56,11.9-11.08,12.35-11,.92,6.16,1.65,8.32a6.94,6.94,0,0,0,2.07,3.17s2.76-2.89,3.55-9.53.86-9.27,1.53-10.73,18.32-15.47,27.79-22.65,29.79-19.63,31.19-19.22S1082.2,45.05,1081.31,57.5Z"/><path d="M991.91,142.66s24.48-24.39,35.15-37,30.16-40.83,30.16-40.83-24.57,26.94-36.76,41.25S991.91,142.66,991.91,142.66Z"/><path d="M1609.48.06a113.38,113.38,0,1,0,113.38,113.38A113.38,113.38,0,0,0,1609.48.06ZM1584,151.39h-37V90.3l9.54-14.8h17.93L1584,90.3Zm44,0h-37V90.3l9.54-14.8h17.94L1628,90.3Zm44,0h-37V90.3l9.55-14.8h17.93L1672,90.3Z"/></g></g></svg>