<svg xmlns="http://www.w3.org/2000/svg" viewBox="0 0 160.92 260.94"><title>KPI black</title><g id="Layer_2" data-name="Layer 2"><g id="Layer_1-2" data-name="Layer 1"><path d="M80.46,0,78.52,0C35.22,1,.18,36.82,0,80.13a80.17,80.17,0,0,0,21.43,55c18.14,19.56,27.75,45.55,27.75,72.23v1.56h0v9.35l61.63-9.35V207c0-26.8,10.59-52.31,28.77-72A80.45,80.45,0,0,0,80.46,0Zm54.71,131c-18.81,20.36-29.5,46.11-30.31,72.82L83.46,207V129.87a28.81,28.81,0,0,1,13.05-24.31A29.79,29.79,0,1,0,64,105.32a29.51,29.51,0,0,1,13.42,24.55v78L55.18,211.3v-3.93c0-28.79-10.42-55.89-29.35-76.31A74.56,74.56,0,0,1,78.66,6l1.8,0a74.45,74.45,0,0,1,54.71,125Z"/><polygon points="49.17 252.54 110.81 242.55 110.81 236.47 49.17 246.46 49.17 252.54"/><polygon points="49.17 241.27 110.81 231.28 110.81 225.21 49.17 235.19 49.17 241.27"/><polygon points="49.17 230 110.81 220.01 110.81 213.94 49.17 223.93 49.17 230"/><polygon points="65.92 260.94 95.05 256.22 95.05 250.14 65.92 254.86 65.92 260.94"/></g></g></svg>