<svg xmlns="http://www.w3.org/2000/svg" viewBox="0 0 174.75 47.55"><defs><style>.cls-1{fill:#fff;}</style></defs><title>Node logo white</title><g id="Layer_2" data-name="Layer 2"><g id="Layer_1-2" data-name="Layer 1"><path class="cls-1" d="M42.22,18.22a9.6,9.6,0,0,0,5-8.45h0A9.51,9.51,0,0,0,40.74.64,9.65,9.65,0,0,0,28,9.77h0a9.61,9.61,0,0,0,5,8.46A6.13,6.13,0,0,1,35.7,20.9l.08.17c1.79,4-3,7.69-6.59,5.17l-9.53-6.77a4.39,4.39,0,0,1-1.36-5.54,9.52,9.52,0,0,0,.95-4.16h0A9.51,9.51,0,0,0,12.74.64,9.65,9.65,0,0,0,0,9.77H0a9.6,9.6,0,0,0,5,8.45A6.2,6.2,0,0,1,7.73,21a6.32,6.32,0,0,1-2.67,8.36A9.6,9.6,0,0,0,0,37.77H0a9.52,9.52,0,0,0,6.51,9.14,9.66,9.66,0,0,0,12.74-9.14h0a9.61,9.61,0,0,0-5-8.45,6.2,6.2,0,0,1-2.66-2.68c0-.05-.05-.11-.08-.16-1.79-4,3-7.69,6.59-5.18l9.53,6.77A4.4,4.4,0,0,1,29,33.62,9.44,9.44,0,0,0,28,37.77h0a9.52,9.52,0,0,0,6.51,9.14,9.66,9.66,0,0,0,12.74-9.14h0a9.6,9.6,0,0,0-5.06-8.46A6.32,6.32,0,0,1,39.52,21,6.2,6.2,0,0,1,42.22,18.22Z"/><path class="cls-1" d="M74.92,15.7l-.1-6.28V.33h1.89V19.27H75.57L63.31,4l0,5.61v9.63H61.47V.33h1.19Z"/><path class="cls-1" d="M100.43,9.85c0,5-3.17,9.78-9.58,9.78s-9.61-4.82-9.61-9.8C81.24,4.49,84.7,0,90.85,0,97.26,0,100.46,4.79,100.43,9.85Zm-9.58,8c5.17,0,7.66-3.93,7.69-8,0-4.25-2.52-8-7.69-8.06s-7.77,3.6-7.72,8.06C83.19,14,85.68,17.84,90.85,17.84Z"/><path class="cls-1" d="M111.67.33c6.42,0,9.5,4.6,9.5,9.28s-2.87,9.66-9.5,9.66H105V.33Zm-4.79,17.18h4.79c5.28,0,7.66-4.11,7.58-7.93s-2.46-7.47-7.58-7.47h-4.79Z"/><path class="cls-1" d="M139.3,19.27H125.71V.33h13.35V2.11H127.61v6.8h10.93v1.76H127.61v6.82H139.3Z"/><path class="cls-1" d="M77.23,44.68a9.65,9.65,0,0,1-6.91,2.87c-6.55,0-9.82-4.39-9.85-9.67S63.75,28,70.32,28A8.71,8.71,0,0,1,77,30.87L75.87,32a7.87,7.87,0,0,0-5.55-2.27c-5.27,0-7.95,3.9-7.95,8.09,0,4.44,2.68,7.94,7.95,7.94A8.22,8.22,0,0,0,76,43.46Z"/><path class="cls-1" d="M94.38,42.86h-11l-2,4.39h-2l8.5-18.95h1.89l8.5,19h-2ZM84.15,41.13h9.47L88.89,30.36Z"/><path class="cls-1" d="M103.75,40.94v6.31h-1.9V28.3h8.48c8.47,0,8.47,12.61,0,12.64Zm0-1.79h6.58c5.93,0,5.93-9.06,0-9.06h-6.58Z"/><path class="cls-1" d="M120.37,47.25V28.3h1.89v19Z"/><path class="cls-1" d="M132.35,30.09h-6.69V28.3h15.27v1.79h-6.69V47.25h-1.89Z"/><path class="cls-1" d="M154.85,42.86h-11l-2,4.39h-2l8.5-18.95h1.89l8.5,19h-2Zm-10.23-1.73h9.47l-4.73-10.77Z"/><path class="cls-1" d="M164.22,28.3V45.46h10.53v1.79H162.32V28.3Z"/></g></g></svg>