<svg xmlns="http://www.w3.org/2000/svg" viewBox="0 0 260.25 219"><title>Patterns black</title><g id="Layer_2" data-name="Layer 2"><g id="Layer_1-2" data-name="Layer 1"><path d="M260.19,105.93a29,29,0,0,0-56.12-8.28,10.9,10.9,0,0,1-10.21,7.14l-7-31a3,3,0,0,0-5.87.07l-14.69,74.72-22.4-146a3,3,0,0,0-6,.25L125.05,192.56,99.41,57.94a3,3,0,0,0-3-2.44h0A3,3,0,0,0,93.51,58L80.36,134l-5-26.74a3,3,0,0,0-3-2.45H66.38a10.9,10.9,0,0,1-10.2-7.14,29,29,0,1,0,0,20.19,10.83,10.83,0,0,1,10.17-7H70l7.54,40.76A3,3,0,0,0,80.46,154h0a3,3,0,0,0,2.94-2.49L96.61,75.28l26.91,141.28a3,3,0,0,0,2.94,2.44h.19a3,3,0,0,0,2.81-2.79L142.11,30.29,163,166.46a3,3,0,0,0,2.9,2.54H166a3,3,0,0,0,2.94-2.42L184.16,89l4.38,19.45a3,3,0,0,0,2.92,2.34h2.41a10.83,10.83,0,0,1,10.17,7,29,29,0,0,0,56.15-11.91Z"/></g></g></svg>