<svg xmlns="http://www.w3.org/2000/svg" viewBox="0 0 266 227.04"><title>Speed black</title><g id="Layer_2" data-name="Layer 2"><g id="Layer_1-2" data-name="Layer 1"><path d="M133,0C59.66,0,0,59.66,0,133a132.07,132.07,0,0,0,39,94l4.24-4.24a126.56,126.56,0,0,1-26.41-38.42l11.46-4.75L26,174.09l-11.47,4.75A126.82,126.82,0,0,1,6,136H18.38v-6H6a126.31,126.31,0,0,1,8.51-42.81L26,91.91l2.29-5.54L16.86,81.65A127.52,127.52,0,0,1,41.14,45.39l8.69,8.68,4.24-4.24-8.68-8.69A127.52,127.52,0,0,1,81.65,16.86l4.72,11.39L91.91,26,87.19,14.55A126.31,126.31,0,0,1,130,6V18.38h6V6a126.31,126.31,0,0,1,42.81,8.51L174.09,26l5.54,2.29,4.72-11.39a127.52,127.52,0,0,1,36.26,24.28l-8.68,8.69,4.24,4.24,8.69-8.68a127.52,127.52,0,0,1,24.28,36.26l-11.39,4.72L240,91.91l11.41-4.72A126.31,126.31,0,0,1,260,130H247.62v6H260a126.82,126.82,0,0,1-8.45,42.84L240,174.09l-2.29,5.54,11.46,4.75A126.56,126.56,0,0,1,222.8,222.8L227,227a132.07,132.07,0,0,0,39-94C266,59.66,206.34,0,133,0Z"/><path d="M163.48,133.44a29,29,0,1,0-14,24.41,21.37,21.37,0,0,1,21.67-.37l48.6,27.84,3-5.2-48.86-28A21,21,0,0,1,163.48,133.44Z"/></g></g></svg>